<?xml version="1.0" encoding="utf-8"?>
<!-- Generator: Adobe Illustrator 26.0.2, SVG Export Plug-In . SVG Version: 6.00 Build 0)  -->
<svg version="1.1" id="Layer_1" xmlns="http://www.w3.org/2000/svg" xmlns:xlink="http://www.w3.org/1999/xlink" x="0px" y="0px"
	 width="86.2px" height="86.8px" viewBox="0 0 86.2 86.8" style="enable-background:new 0 0 86.2 86.8;" xml:space="preserve">
<style type="text/css">
	.st0{clip-path:url(#SVGID_00000002351762626161108440000016604332509533393327_);}
	.st1{fill:#004EDE;}
</style>
<g>
	<g>
		<defs>
			<rect id="SVGID_1_" x="-21" y="-21.2" width="128.2" height="129.1"/>
		</defs>
		<clipPath id="SVGID_00000121975707741140876820000005898400352059679632_">
			<use xlink:href="#SVGID_1_"  style="overflow:visible;"/>
		</clipPath>
		<g id="Artboard_5_copy_9" style="clip-path:url(#SVGID_00000121975707741140876820000005898400352059679632_);">
			<g id="Layer_1_1_" transform="translate(-7526)">
				<g id="Group_9">
					<g id="Group_8">
						<g id="Group_7">
							<path id="Path_51" class="st1" d="M7539.5,73.6c-0.3-0.5-0.6-0.9-1.1-1.1c-0.5-0.3-1.1-0.4-1.6-0.4c-0.7,0-1.3,0.1-1.9,0.5
								c-0.5,0.3-1,0.8-1.3,1.4c-0.6,1.3-0.6,2.8,0,4.1c0.3,0.6,0.7,1,1.3,1.4c0.6,0.3,1.2,0.5,1.9,0.5c0.9,0,1.6-0.2,2.2-0.7
								c0.6-0.5,1-1.1,1.1-2h-4v-1.8h6.4v2.1c-0.2,0.8-0.5,1.6-1,2.3c-0.5,0.7-1.2,1.3-2,1.7c-0.8,0.4-1.8,0.6-2.7,0.6
								c-1.1,0-2.1-0.3-3.1-0.8c-0.9-0.5-1.6-1.2-2.2-2.1c-1-1.9-1-4.3,0-6.2c0.5-0.9,1.2-1.6,2.2-2.1c0.9-0.5,2-0.8,3.1-0.8
								c1.3,0,2.5,0.3,3.4,1c1,0.6,1.7,1.6,2,2.7L7539.5,73.6z"/>
							<path id="Path_52" class="st1" d="M7546.6,71.9v2.9h4v1.9h-4v3.1h4.5v1.9h-6.8V70h6.8v1.9L7546.6,71.9L7546.6,71.9z"/>
							<path id="Path_53" class="st1" d="M7563.3,81.8h-2.4l-5.3-8.1v8.1h-2.4V70h2.4l5.3,8.1V70h2.4V81.8z"/>
							<path id="Path_54" class="st1" d="M7568,71.9v2.9h4v1.9h-4v3.1h4.5v1.9h-6.8V70h6.8v1.9L7568,71.9L7568,71.9z"/>
							<path id="Path_55" class="st1" d="M7581.9,70v1.9h-4.9v3h3.8v1.9h-3.8v5h-2.4V70H7581.9z"/>
							<path id="Path_56" class="st1" d="M7585.9,70v11.8h-2.4V70H7585.9z"/>
							<path id="Path_57" class="st1" d="M7590.6,71.9v2.9h4v1.9h-4v3.1h4.5v1.9h-6.8V70h6.8v1.9L7590.6,71.9L7590.6,71.9z"/>
							<path id="Path_58" class="st1" d="M7604.5,70.7c0.9,0.5,1.7,1.2,2.2,2.1c0.5,1,0.8,2,0.8,3.1c0,1.1-0.2,2.2-0.8,3.1
								c-0.5,0.9-1.3,1.6-2.2,2.1c-1,0.5-2.1,0.7-3.3,0.7h-4.1V70h4.1C7602.4,70,7603.5,70.2,7604.5,70.7z M7604.1,78.8
								c0.7-0.7,1-1.6,1-2.9c0-1.2-0.3-2.2-1-2.9s-1.6-1-2.9-1h-1.7v7.8h1.7C7602.4,79.8,7603.4,79.4,7604.1,78.8L7604.1,78.8z"/>
						</g>
					</g>
					<path id="Path_59" class="st1" d="M7584.6,52.4c-2.8,0-6-0.5-9.5-1.5l0.6-2c8.4,2.4,14.8,1.7,16.7-1.6
						c2.6-4.6-3.4-13.7-14.2-21.2l1.2-1.7c12,8.4,18.1,18.2,14.8,23.9C7592.6,51,7589.2,52.4,7584.6,52.4z"/>
					<path id="Path_60" class="st1" d="M7554.6,40.8c-5.3-3.8-9.6-8.2-12.1-12.2c-2.8-4.4-3.4-8.2-1.7-11.1
						c2.7-4.6,10.8-5.3,21.2-1.9l-0.7,2c-9.3-3-16.6-2.6-18.7,1c-2.6,4.5,3,13.1,13.3,20.5L7554.6,40.8z"/>
					<path id="Path_61" class="st1" d="M7575.6,15.3c-0.2-0.7-0.5-1.5-0.7-2.1l1.9-0.7c0.3,0.7,0.5,1.5,0.8,2.2L7575.6,15.3z"/>
					<path id="Path_62" class="st1" d="M7566.9,63.8c-3.7,0-7-3.3-9.5-9.4c-2.3-5.7-3.6-13.4-3.6-21.5s1.3-15.7,3.6-21.5
						c2.5-6,5.8-9.4,9.5-9.4c2.3,0,4.6,1.4,6.5,3.9l-1.7,1.2c-1.1-1.4-2.8-3.1-4.9-3.1c-2.7,0-5.5,2.9-7.6,8.1
						c-2.2,5.5-3.5,12.9-3.5,20.7s1.2,15.2,3.5,20.7c2.1,5.1,4.8,8.1,7.6,8.1c3.4,0,6.8-4.6,8.9-11.9l2,0.6
						C7575.3,58.9,7571.4,63.8,7566.9,63.8z"/>
					<path id="Path_63" class="st1" d="M7545.9,36l-1.6-1.3c3.8-4.8,9.6-9.6,16.4-13.5l1,1.8C7555.1,26.7,7549.5,31.3,7545.9,36z"/>
					<path id="Path_64" class="st1" d="M7550.3,52.4c-4.6,0-8-1.4-9.6-4.1c-1.1-2-1.2-4.6-0.1-7.4l1.9,0.7c-0.9,2.3-0.9,4.2,0,5.7
						c1.3,2.2,4.3,2.9,6.6,3c3.5,0.2,7.8-0.5,12.5-2.1l0.7,2C7557.8,51.7,7553.7,52.4,7550.3,52.4z"/>
					<path id="Path_65" class="st1" d="M7579.8,41.1l-1.2-1.7c5.2-3.7,9.5-7.9,11.9-11.8c2.4-3.7,3-7,1.8-9.1
						c-1.8-3.1-7.7-3.9-15.3-2l-0.5-2c4.1-1,7.8-1.3,10.8-0.9c3.3,0.5,5.6,1.8,6.8,3.9c1.7,2.9,1,6.8-1.8,11.2
						C7589.7,32.9,7585.3,37.3,7579.8,41.1z"/>
					<path id="Path_66" class="st1" d="M7574.9,13.3c-2.3,0-4.1-1.8-4.1-4.1s1.8-4.1,4.1-4.1c2.3,0,4.1,1.8,4.1,4.1l0,0
						C7579,11.4,7577.1,13.3,7574.9,13.3z M7574.9,7.2c-1.1,0-2,0.9-2,2s0.9,2,2,2s2-0.9,2-2l0,0C7576.9,8.1,7576,7.2,7574.9,7.2z"
						/>
					<path id="Path_67" class="st1" d="M7543.4,42.3c-2.3,0-4.1-1.8-4.1-4.1c0-2.3,1.8-4.1,4.1-4.1c2.3,0,4.1,1.8,4.1,4.1
						C7547.5,40.5,7545.7,42.3,7543.4,42.3z M7543.4,36.2c-1.1,0-2,0.9-2,2c0,1.1,0.9,2,2,2c1.1,0,2-0.9,2-2
						C7545.4,37.1,7544.5,36.2,7543.4,36.2L7543.4,36.2z"/>
					<path id="Path_68" class="st1" d="M7557.3,51.6c-0.6,0-1.1-0.4-1.2-1c-0.7-2.6-1.2-5.2-1.6-7.8c-0.4-2.8-0.6-5.6-0.6-8.5v-0.3
						l0.1-0.2c0.5-1,1.1-1.9,1.8-2.7c0.9-1.1,2-2,3.3-2.8c0.7-0.4,1.5-0.8,2.3-1l0.4,1.9c-0.7,0.2-1.1,0.6-1.7,0.9
						c-1,0.6-1.9,1.4-2.7,2.3c-0.5,0.6-1,1.3-1.4,2c0.1,5,0.7,9.9,2,14.7c0.4-0.1,0.8-0.2,1.2-0.3c0.7-0.2,1.4-0.4,2.1-0.6l0.6,2
						c-0.7,0.2-1.4,0.4-2.1,0.6c-0.7,0.2-1.4,0.4-2,0.5C7557.5,51.6,7557.4,51.6,7557.3,51.6z"/>
					<path id="Path_69" class="st1" d="M7571.1,51h4.8c1.3,0,2.5-0.1,3.4-1.2c0.9-1.1,0.8-2.5,0.8-3.8V21.2c0-1.4,0.3-3.1-0.2-4.4
						c-0.4-1.2-1.6-2.1-2.9-2.2c-1.5-0.1-3,0-4.5,0h-4.9c-1.5,0-3.1-0.1-4.7,0c-1.4,0.1-2.5,0.9-3,2.2c-0.4,1.1-0.3,2.5-0.3,3.7
						c-0.1,5.6,0,11.1,0.1,16.7c0,1.4,2.3,1.4,2.2,0c-0.1-4.8-0.1-9.6-0.1-14.3c0-1.3,0-2.6,0.1-4c0-0.4,0-0.7,0.1-1.1
						c0.3-1.2,1.6-1,2.6-1h10.9c0.5,0,1.1-0.1,1.6,0c1.1,0.3,0.9,1.7,0.9,2.6v17.8c0,3.4,0,6.7,0,10.1c0,1.3-0.8,1.5-1.8,1.5h-5
						C7569.6,48.7,7569.6,51,7571.1,51z"/>
					<path id="Path_70" class="st1" d="M7559.7,36.7c0,1,0.2,1.9,1.2,2.4c1,0.4,1.9,0.2,2.7-0.4c0.6-0.4,1.6-1,2.3-0.5
						c0.4,0.3,0.5,0.8,0.3,1.2c-0.3,0.7-1.1,1.3-1.6,1.8c-0.8,0.7-1.7,1.3-2.5,2c-0.7,0.6-1.6,1.2-2,2.1c-0.4,0.8-0.5,1.7-0.3,2.6
						c0.2,1.1,0.7,2.1,1.7,2.6c1,0.5,2,0.4,3.1,0.4c1.4,0,1.4-2.2,0-2.2c-0.8,0-2.1,0.3-2.5-0.7c-0.4-0.8-0.2-1.6,0.5-2.2
						c1.7-1.5,3.7-2.7,5.1-4.5c1.2-1.6,1.2-4-0.7-5.1c-1.1-0.7-2.4-0.5-3.5,0c-0.5,0.2-0.8,0.5-1.3,0.8c-0.2,0.1-0.1,0.1-0.3,0.1
						c0,0.1,0,0.2,0,0s0-0.3,0-0.4C7562,35.3,7559.8,35.3,7559.7,36.7L7559.7,36.7z"/>
					<path id="Rectangle_7" class="st1" d="M7565.6,23h1.6c0.3,0,0.4,0.2,0.4,0.4v1.6c0,0.3-0.2,0.4-0.4,0.4h-1.6
						c-0.3,0-0.4-0.2-0.4-0.4v-1.6C7565.2,23.3,7565.4,23,7565.6,23z"/>
					<path id="Rectangle_8" class="st1" d="M7565.6,29.5h1.6c0.3,0,0.4,0.2,0.4,0.4v1.6c0,0.3-0.2,0.4-0.4,0.4h-1.6
						c-0.3,0-0.4-0.2-0.4-0.4V30C7565.2,29.7,7565.4,29.5,7565.6,29.5z"/>
					<path id="Rectangle_9" class="st1" d="M7572.2,29.5h1.6c0.3,0,0.4,0.2,0.4,0.4v1.6c0,0.3-0.2,0.4-0.4,0.4h-1.6
						c-0.3,0-0.4-0.2-0.4-0.4V30C7571.7,29.7,7571.9,29.5,7572.2,29.5z"/>
					<path id="Path_71" class="st1" d="M7573.6,28.5h-1.3c-0.5,0-0.9-0.4-0.9-0.9c0-0.5,0.4-0.9,0.9-0.9h1.3c0.5,0,0.9,0.4,0.9,0.9
						C7574.5,28.1,7574.1,28.5,7573.6,28.5z"/>
					<path id="Path_72" class="st1" d="M7569.7,32.3c-0.5,0-0.9-0.4-0.9-0.9v-1.3c0-0.5,0.4-0.9,0.9-0.9s0.9,0.4,0.9,0.9v1.3
						C7570.6,31.9,7570.2,32.3,7569.7,32.3z"/>
					<path id="Path_73" class="st1" d="M7573.5,26c-0.5,0-0.9-0.4-0.9-0.9v-0.3h-0.3c-0.5,0-0.9-0.4-0.9-0.9c0-0.5,0.4-0.9,0.9-0.9
						h1.1c0.5,0,0.9,0.4,0.9,0.9v1.1C7574.4,25.6,7574,26,7573.5,26z"/>
					<path id="Path_74" class="st1" d="M7569.7,28.5h-3.6c-0.5,0-0.9-0.4-0.9-0.9c0-0.5,0.4-0.9,0.9-0.9h2.7V24
						c0-0.5,0.4-0.9,0.9-0.9s0.9,0.4,0.9,0.9v3.6C7570.6,28.1,7570.2,28.5,7569.7,28.5z"/>
					<path id="Path_75" class="st1" d="M7567.6,52.5c-2.3,0-4.1-1.8-4.1-4.1c0-2.3,1.8-4.1,4.1-4.1c2.3,0,4.1,1.8,4.1,4.1l0,0
						C7571.7,50.7,7569.9,52.5,7567.6,52.5z M7567.6,46.4c-1.1,0-2,0.9-2,2c0,1.1,0.9,2,2,2s2-0.9,2-2l0,0
						C7569.6,47.3,7568.8,46.4,7567.6,46.4L7567.6,46.4z"/>
				</g>
			</g>
		</g>
	</g>
</g>
</svg>
